<svg width="218" height="267" viewBox="0 0 218 267" fill="none" xmlns="http://www.w3.org/2000/svg">
<path d="M0 70C0 31.3401 31.3401 0 70 0H148C186.66 0 218 31.3401 218 70V206C218 214.837 210.837 222 202 222H16C7.16344 222 0 214.837 0 206V70Z" fill="#415F91"/>
<g filter="url(#filter0_d_305_29)">
<circle cx="109.75" cy="95.75" r="63.75" fill="#D6E3FF"/>
<g filter="url(#filter1_d_305_29)">
<circle cx="109.5" cy="95.5" r="53.5" fill="#D6E3FF"/>
<circle cx="109.5" cy="95.5" r="55.5" stroke="#415F91" stroke-width="4"/>
</g>
<g filter="url(#filter2_d_305_29)">
<path d="M109.5 58L111 96L82.5 80.5" stroke="#12134F" stroke-width="3" stroke-linecap="round"/>
</g>
</g>
<g filter="url(#filter3_i_305_29)">
<ellipse cx="47.5" cy="181" rx="15.5" ry="15" fill="#D6E3FF"/>
</g>
<g filter="url(#filter4_i_305_29)">
<ellipse cx="173.5" cy="181" rx="15.5" ry="15" fill="#D6E3FF"/>
</g>
<path d="M174 259L135 209" stroke="#415F91" stroke-width="16" stroke-linecap="round"/>
<path d="M48 259L83 209" stroke="#415F91" stroke-width="16" stroke-linecap="round"/>
<path d="M82.5729 141.74L89.6263 130.398M139 51L131.947 62.3425" stroke="black"/>
<path d="M61.7802 119.551L73.7802 113.676M157.78 72.5508L145.78 78.4258" stroke="black"/>
<path d="M83.0045 49.1348L89.4999 59.0001M139 140L132.5 129.5" stroke="black"/>
<path d="M62 70L74 76M158 118L146 112" stroke="black"/>
<path d="M110.5 42V48V54M110.5 149V135.625" stroke="black"/>
<path d="M56 95.5H69.375M163 95.5H149.625" stroke="black"/>
<defs>
<filter id="filter0_d_305_29" x="42" y="32" width="135.5" height="135.5" filterUnits="userSpaceOnUse" color-interpolation-filters="sRGB">
<feFlood flood-opacity="0" result="BackgroundImageFix"/>
<feColorMatrix in="SourceAlpha" type="matrix" values="0 0 0 0 0 0 0 0 0 0 0 0 0 0 0 0 0 0 127 0" result="hardAlpha"/>
<feOffset dy="4"/>
<feGaussianBlur stdDeviation="2"/>
<feComposite in2="hardAlpha" operator="out"/>
<feColorMatrix type="matrix" values="0 0 0 0 0 0 0 0 0 0 0 0 0 0 0 0 0 0 0.25 0"/>
<feBlend mode="normal" in2="BackgroundImageFix" result="effect1_dropShadow_305_29"/>
<feBlend mode="normal" in="SourceGraphic" in2="effect1_dropShadow_305_29" result="shape"/>
</filter>
<filter id="filter1_d_305_29" x="49" y="36" width="123" height="123" filterUnits="userSpaceOnUse" color-interpolation-filters="sRGB">
<feFlood flood-opacity="0" result="BackgroundImageFix"/>
<feColorMatrix in="SourceAlpha" type="matrix" values="0 0 0 0 0 0 0 0 0 0 0 0 0 0 0 0 0 0 127 0" result="hardAlpha"/>
<feOffset dx="1" dy="2"/>
<feGaussianBlur stdDeviation="2"/>
<feComposite in2="hardAlpha" operator="out"/>
<feColorMatrix type="matrix" values="0 0 0 0 0 0 0 0 0 0 0 0 0 0 0 0 0 0 0.25 0"/>
<feBlend mode="normal" in2="BackgroundImageFix" result="effect1_dropShadow_305_29"/>
<feBlend mode="normal" in="SourceGraphic" in2="effect1_dropShadow_305_29" result="shape"/>
</filter>
<filter id="filter2_d_305_29" x="76.9998" y="56.5" width="39.6033" height="50.0791" filterUnits="userSpaceOnUse" color-interpolation-filters="sRGB">
<feFlood flood-opacity="0" result="BackgroundImageFix"/>
<feColorMatrix in="SourceAlpha" type="matrix" values="0 0 0 0 0 0 0 0 0 0 0 0 0 0 0 0 0 0 127 0" result="hardAlpha"/>
<feOffset dy="4"/>
<feGaussianBlur stdDeviation="2"/>
<feComposite in2="hardAlpha" operator="out"/>
<feColorMatrix type="matrix" values="0 0 0 0 0 0 0 0 0 0 0 0 0 0 0 0 0 0 0.25 0"/>
<feBlend mode="normal" in2="BackgroundImageFix" result="effect1_dropShadow_305_29"/>
<feBlend mode="normal" in="SourceGraphic" in2="effect1_dropShadow_305_29" result="shape"/>
</filter>
<filter id="filter3_i_305_29" x="32" y="166" width="31" height="34" filterUnits="userSpaceOnUse" color-interpolation-filters="sRGB">
<feFlood flood-opacity="0" result="BackgroundImageFix"/>
<feBlend mode="normal" in="SourceGraphic" in2="BackgroundImageFix" result="shape"/>
<feColorMatrix in="SourceAlpha" type="matrix" values="0 0 0 0 0 0 0 0 0 0 0 0 0 0 0 0 0 0 127 0" result="hardAlpha"/>
<feOffset dy="4"/>
<feGaussianBlur stdDeviation="2"/>
<feComposite in2="hardAlpha" operator="arithmetic" k2="-1" k3="1"/>
<feColorMatrix type="matrix" values="0 0 0 0 0 0 0 0 0 0 0 0 0 0 0 0 0 0 0.25 0"/>
<feBlend mode="normal" in2="shape" result="effect1_innerShadow_305_29"/>
</filter>
<filter id="filter4_i_305_29" x="158" y="166" width="31" height="34" filterUnits="userSpaceOnUse" color-interpolation-filters="sRGB">
<feFlood flood-opacity="0" result="BackgroundImageFix"/>
<feBlend mode="normal" in="SourceGraphic" in2="BackgroundImageFix" result="shape"/>
<feColorMatrix in="SourceAlpha" type="matrix" values="0 0 0 0 0 0 0 0 0 0 0 0 0 0 0 0 0 0 127 0" result="hardAlpha"/>
<feOffset dy="4"/>
<feGaussianBlur stdDeviation="2"/>
<feComposite in2="hardAlpha" operator="arithmetic" k2="-1" k3="1"/>
<feColorMatrix type="matrix" values="0 0 0 0 0 0 0 0 0 0 0 0 0 0 0 0 0 0 0.25 0"/>
<feBlend mode="normal" in2="shape" result="effect1_innerShadow_305_29"/>
</filter>
</defs>
</svg>
